# xmcd CD database file
#
# Track frame offsets:
#	150
#	15949
#	45603
#	60737
#	81317
#	111216
#	129474
#	163041
#	189503
#	217860
#	251102
#	276586
#	310065
#
# Disc length: 4338 seconds
#
# Revision: 1
# Processed by: cddbd v1.5.2PL0 Copyright (c) Steve Scherf et al.
# Submitted via: CDex 1.70beta2
#
DISCID=b310f00d
DTITLE=suite 5 - from soul to soul
DYEAR=2009
DGENRE=Jazz
TTITLE0=softly as in a morning sunrise
TTITLE1=what a difference a day made
TTITLE2=falling in love with love
TTITLE3=that old feeling
TTITLE4=my funny valentine
TTITLE5=fly me to the moon
TTITLE6=i'm a fool to want you
TTITLE7=bachiao
TTITLE8=summertime
TTITLE9=autumn leaves
TTITLE10=all of me
TTITLE11=the gentle rain
TTITLE12=i fall in love too easily
EXTD=YEAR: 2009
EXTT0=
EXTT1=
EXTT2=
EXTT3=
EXTT4=
EXTT5=
EXTT6=
EXTT7=
EXTT8=
EXTT9=
EXTT10=
EXTT11=
EXTT12=
PLAYORDER=
